<mxfile host="app.diagrams.net" agent="Mozilla/5.0 (Windows NT 10.0; Win64; x64) AppleWebKit/537.36 (KHTML, like Gecko) Chrome/129.0.0.0 Safari/537.36" version="24.8.0">
  <diagram name="Страница — 1" id="KjA1eR9UNY2XP4DPkhcD">
    <mxGraphModel dx="698" dy="376" grid="1" gridSize="10" guides="1" tooltips="1" connect="1" arrows="1" fold="1" page="1" pageScale="1" pageWidth="827" pageHeight="1169" math="0" shadow="0">
      <root>
        <mxCell id="0" />
        <mxCell id="1" parent="0" />
        <mxCell id="zui_nFcvys3z8cbi4-ek-25" value="" style="shape=table;startSize=0;container=1;collapsible=0;childLayout=tableLayout;" vertex="1" parent="1">
          <mxGeometry x="230" y="170" width="420" height="1360" as="geometry" />
        </mxCell>
        <mxCell id="zui_nFcvys3z8cbi4-ek-26" value="" style="shape=tableRow;horizontal=0;startSize=0;swimlaneHead=0;swimlaneBody=0;strokeColor=inherit;top=0;left=0;bottom=0;right=0;collapsible=0;dropTarget=0;fillColor=none;points=[[0,0.5],[1,0.5]];portConstraint=eastwest;" vertex="1" parent="zui_nFcvys3z8cbi4-ek-25">
          <mxGeometry width="420" height="55" as="geometry" />
        </mxCell>
        <mxCell id="zui_nFcvys3z8cbi4-ek-27" value="Заголовок" style="shape=partialRectangle;html=1;whiteSpace=wrap;connectable=0;strokeColor=inherit;overflow=hidden;fillColor=none;top=0;left=0;bottom=0;right=0;pointerEvents=1;" vertex="1" parent="zui_nFcvys3z8cbi4-ek-26">
          <mxGeometry width="155" height="55" as="geometry">
            <mxRectangle width="155" height="55" as="alternateBounds" />
          </mxGeometry>
        </mxCell>
        <mxCell id="zui_nFcvys3z8cbi4-ek-28" value="&lt;font style=&quot;font-size: 8px;&quot;&gt;Сортировка reels по дате&lt;/font&gt;" style="shape=partialRectangle;html=1;whiteSpace=wrap;connectable=0;strokeColor=inherit;overflow=hidden;fillColor=none;top=0;left=0;bottom=0;right=0;pointerEvents=1;align=left;" vertex="1" parent="zui_nFcvys3z8cbi4-ek-26">
          <mxGeometry x="155" width="265" height="55" as="geometry">
            <mxRectangle width="265" height="55" as="alternateBounds" />
          </mxGeometry>
        </mxCell>
        <mxCell id="zui_nFcvys3z8cbi4-ek-29" value="" style="shape=tableRow;horizontal=0;startSize=0;swimlaneHead=0;swimlaneBody=0;strokeColor=inherit;top=0;left=0;bottom=0;right=0;collapsible=0;dropTarget=0;fillColor=none;points=[[0,0.5],[1,0.5]];portConstraint=eastwest;" vertex="1" parent="zui_nFcvys3z8cbi4-ek-25">
          <mxGeometry y="55" width="420" height="65" as="geometry" />
        </mxCell>
        <mxCell id="zui_nFcvys3z8cbi4-ek-30" value="Акторы" style="shape=partialRectangle;html=1;whiteSpace=wrap;connectable=0;strokeColor=inherit;overflow=hidden;fillColor=none;top=0;left=0;bottom=0;right=0;pointerEvents=1;" vertex="1" parent="zui_nFcvys3z8cbi4-ek-29">
          <mxGeometry width="155" height="65" as="geometry">
            <mxRectangle width="155" height="65" as="alternateBounds" />
          </mxGeometry>
        </mxCell>
        <mxCell id="zui_nFcvys3z8cbi4-ek-31" value="&lt;font style=&quot;background-color: initial; font-size: 7px;&quot;&gt;1) пользователь&lt;/font&gt;&lt;font style=&quot;font-size: 8px; background-color: initial;&quot;&gt; &lt;/font&gt;&lt;font style=&quot;font-size: 8px; background-color: initial;&quot;&gt;социальной &lt;/font&gt;&lt;font style=&quot;font-size: 8px; background-color: initial;&quot;&gt;сети&lt;/font&gt;&lt;br&gt;&lt;font style=&quot;font-size: 8px; background-color: initial;&quot;&gt;2) &lt;/font&gt;&lt;font style=&quot;font-size: 7px;&quot;&gt;&lt;font style=&quot;background-color: initial; font-size: 7px;&quot;&gt;мобильное &lt;/font&gt;&lt;font style=&quot;background-color: initial; font-size: 7px;&quot;&gt;приложение&lt;/font&gt;&lt;/font&gt;" style="shape=partialRectangle;html=1;whiteSpace=wrap;connectable=0;strokeColor=inherit;overflow=hidden;fillColor=none;top=0;left=0;bottom=0;right=0;pointerEvents=1;align=left;" vertex="1" parent="zui_nFcvys3z8cbi4-ek-29">
          <mxGeometry x="155" width="265" height="65" as="geometry">
            <mxRectangle width="265" height="65" as="alternateBounds" />
          </mxGeometry>
        </mxCell>
        <mxCell id="zui_nFcvys3z8cbi4-ek-32" value="" style="shape=tableRow;horizontal=0;startSize=0;swimlaneHead=0;swimlaneBody=0;strokeColor=inherit;top=0;left=0;bottom=0;right=0;collapsible=0;dropTarget=0;fillColor=none;points=[[0,0.5],[1,0.5]];portConstraint=eastwest;" vertex="1" parent="zui_nFcvys3z8cbi4-ek-25">
          <mxGeometry y="120" width="420" height="80" as="geometry" />
        </mxCell>
        <mxCell id="zui_nFcvys3z8cbi4-ek-33" value="Предусловие" style="shape=partialRectangle;html=1;whiteSpace=wrap;connectable=0;strokeColor=inherit;overflow=hidden;fillColor=none;top=0;left=0;bottom=0;right=0;pointerEvents=1;" vertex="1" parent="zui_nFcvys3z8cbi4-ek-32">
          <mxGeometry width="155" height="80" as="geometry">
            <mxRectangle width="155" height="80" as="alternateBounds" />
          </mxGeometry>
        </mxCell>
        <mxCell id="zui_nFcvys3z8cbi4-ek-34" value="&lt;span style=&quot;background-color: initial; font-size: 7px;&quot;&gt;Пользователь авторизован в приложении и имеет доступ к разделу с Reels.&lt;/span&gt;&lt;br&gt;&lt;span style=&quot;background-color: initial; font-size: 7px;&quot;&gt;В системе существует хотя бы один опубликованный Reels.&lt;/span&gt;" style="shape=partialRectangle;html=1;whiteSpace=wrap;connectable=0;strokeColor=inherit;overflow=hidden;fillColor=none;top=0;left=0;bottom=0;right=0;pointerEvents=1;align=left;" vertex="1" parent="zui_nFcvys3z8cbi4-ek-32">
          <mxGeometry x="155" width="265" height="80" as="geometry">
            <mxRectangle width="265" height="80" as="alternateBounds" />
          </mxGeometry>
        </mxCell>
        <mxCell id="zui_nFcvys3z8cbi4-ek-35" value="" style="shape=tableRow;horizontal=0;startSize=0;swimlaneHead=0;swimlaneBody=0;strokeColor=inherit;top=0;left=0;bottom=0;right=0;collapsible=0;dropTarget=0;fillColor=none;points=[[0,0.5],[1,0.5]];portConstraint=eastwest;" vertex="1" parent="zui_nFcvys3z8cbi4-ek-25">
          <mxGeometry y="200" width="420" height="55" as="geometry" />
        </mxCell>
        <mxCell id="zui_nFcvys3z8cbi4-ek-36" value="Ограничение" style="shape=partialRectangle;html=1;whiteSpace=wrap;connectable=0;strokeColor=inherit;overflow=hidden;fillColor=none;top=0;left=0;bottom=0;right=0;pointerEvents=1;" vertex="1" parent="zui_nFcvys3z8cbi4-ek-35">
          <mxGeometry width="155" height="55" as="geometry">
            <mxRectangle width="155" height="55" as="alternateBounds" />
          </mxGeometry>
        </mxCell>
        <mxCell id="zui_nFcvys3z8cbi4-ek-37" value="&lt;font style=&quot;font-size: 7px;&quot;&gt;Требуется включить впн&lt;/font&gt;" style="shape=partialRectangle;html=1;whiteSpace=wrap;connectable=0;strokeColor=inherit;overflow=hidden;fillColor=none;top=0;left=0;bottom=0;right=0;pointerEvents=1;align=left;" vertex="1" parent="zui_nFcvys3z8cbi4-ek-35">
          <mxGeometry x="155" width="265" height="55" as="geometry">
            <mxRectangle width="265" height="55" as="alternateBounds" />
          </mxGeometry>
        </mxCell>
        <mxCell id="zui_nFcvys3z8cbi4-ek-38" value="" style="shape=tableRow;horizontal=0;startSize=0;swimlaneHead=0;swimlaneBody=0;strokeColor=inherit;top=0;left=0;bottom=0;right=0;collapsible=0;dropTarget=0;fillColor=none;points=[[0,0.5],[1,0.5]];portConstraint=eastwest;" vertex="1" parent="zui_nFcvys3z8cbi4-ek-25">
          <mxGeometry y="255" width="420" height="70" as="geometry" />
        </mxCell>
        <mxCell id="zui_nFcvys3z8cbi4-ek-39" value="Триггер" style="shape=partialRectangle;html=1;whiteSpace=wrap;connectable=0;strokeColor=inherit;overflow=hidden;fillColor=none;top=0;left=0;bottom=0;right=0;pointerEvents=1;" vertex="1" parent="zui_nFcvys3z8cbi4-ek-38">
          <mxGeometry width="155" height="70" as="geometry">
            <mxRectangle width="155" height="70" as="alternateBounds" />
          </mxGeometry>
        </mxCell>
        <mxCell id="zui_nFcvys3z8cbi4-ek-40" value="&lt;span style=&quot;font-size: 7px; background-color: initial;&quot;&gt;Пользователь нажимает на кнопку или выбирает опцию для сортировки Reels по дате&lt;/span&gt;" style="shape=partialRectangle;html=1;whiteSpace=wrap;connectable=0;strokeColor=inherit;overflow=hidden;fillColor=none;top=0;left=0;bottom=0;right=0;pointerEvents=1;align=left;" vertex="1" parent="zui_nFcvys3z8cbi4-ek-38">
          <mxGeometry x="155" width="265" height="70" as="geometry">
            <mxRectangle width="265" height="70" as="alternateBounds" />
          </mxGeometry>
        </mxCell>
        <mxCell id="zui_nFcvys3z8cbi4-ek-41" value="" style="shape=tableRow;horizontal=0;startSize=0;swimlaneHead=0;swimlaneBody=0;strokeColor=inherit;top=0;left=0;bottom=0;right=0;collapsible=0;dropTarget=0;fillColor=none;points=[[0,0.5],[1,0.5]];portConstraint=eastwest;" vertex="1" parent="zui_nFcvys3z8cbi4-ek-25">
          <mxGeometry y="325" width="420" height="425" as="geometry" />
        </mxCell>
        <mxCell id="zui_nFcvys3z8cbi4-ek-42" value="Основной сценарий" style="shape=partialRectangle;html=1;whiteSpace=wrap;connectable=0;strokeColor=inherit;overflow=hidden;fillColor=none;top=0;left=0;bottom=0;right=0;pointerEvents=1;" vertex="1" parent="zui_nFcvys3z8cbi4-ek-41">
          <mxGeometry width="155" height="425" as="geometry">
            <mxRectangle width="155" height="425" as="alternateBounds" />
          </mxGeometry>
        </mxCell>
        <mxCell id="zui_nFcvys3z8cbi4-ek-43" value="&lt;div style=&quot;text-align: justify; font-size: 8px;&quot;&gt;&lt;strong style=&quot;background-color: initial;&quot;&gt;&lt;font style=&quot;font-size: 8px;&quot;&gt;1) Пользователь открывает раздел с Reels&lt;/font&gt;&lt;/strong&gt;&lt;/div&gt;&lt;font style=&quot;font-size: 8px;&quot;&gt;&lt;div style=&quot;text-align: justify;&quot;&gt;&lt;br&gt;&lt;/div&gt;&lt;p style=&quot;background-color: initial; display: inline !important;&quot;&gt;&lt;/p&gt;&lt;div style=&quot;text-align: justify;&quot;&gt;&lt;strong style=&quot;background-color: initial;&quot;&gt;&lt;br&gt;&lt;/strong&gt;&lt;/div&gt;&lt;div style=&quot;text-align: justify;&quot;&gt;&lt;strong style=&quot;background-color: initial;&quot;&gt;2) Пользователь нажимает на кнопку сортировки&lt;/strong&gt;&lt;/div&gt;&lt;p&gt;&lt;/p&gt;&lt;span style=&quot;background-color: initial;&quot;&gt;&lt;div style=&quot;text-align: justify;&quot;&gt;&lt;br&gt;&lt;/div&gt;&lt;/span&gt;&lt;p style=&quot;background-color: initial; display: inline !important;&quot;&gt;&lt;/p&gt;&lt;div style=&quot;text-align: justify;&quot;&gt;&lt;strong style=&quot;background-color: initial;&quot;&gt;&lt;br&gt;&lt;/strong&gt;&lt;/div&gt;&lt;div style=&quot;text-align: justify;&quot;&gt;&lt;strong style=&quot;background-color: initial;&quot;&gt;3) Пользователь выбирает сортировку &quot;по дате&quot;&lt;/strong&gt;&lt;/div&gt;&lt;p&gt;&lt;/p&gt;&lt;span style=&quot;background-color: initial;&quot;&gt;&lt;div style=&quot;text-align: justify;&quot;&gt;&lt;br&gt;&lt;/div&gt;&lt;/span&gt;&lt;p style=&quot;background-color: initial; display: inline !important;&quot;&gt;&lt;/p&gt;&lt;div style=&quot;text-align: justify;&quot;&gt;&lt;strong style=&quot;background-color: initial;&quot;&gt;&lt;br&gt;&lt;/strong&gt;&lt;/div&gt;&lt;div style=&quot;text-align: justify;&quot;&gt;&lt;strong style=&quot;background-color: initial;&quot;&gt;4) Система отображает отсортированные Reels&lt;/strong&gt;&lt;/div&gt;&lt;p&gt;&lt;/p&gt;&lt;span style=&quot;background-color: initial;&quot;&gt;&lt;div style=&quot;text-align: justify;&quot;&gt;&lt;br&gt;&lt;/div&gt;&lt;/span&gt;&lt;p style=&quot;background-color: initial; display: inline !important;&quot;&gt;&lt;/p&gt;&lt;div style=&quot;text-align: justify;&quot;&gt;&lt;strong style=&quot;background-color: initial;&quot;&gt;&lt;br&gt;&lt;/strong&gt;&lt;/div&gt;&lt;div style=&quot;text-align: justify;&quot;&gt;&lt;strong style=&quot;background-color: initial;&quot;&gt;5) Пользователь просматривает отсортированный список&lt;/strong&gt;&lt;/div&gt;&lt;p&gt;&lt;/p&gt;&lt;span style=&quot;background-color: initial;&quot;&gt;&lt;div style=&quot;text-align: justify;&quot;&gt;&lt;br&gt;&lt;/div&gt;&lt;/span&gt;&lt;div style=&quot;text-align: justify;&quot;&gt;&lt;strong style=&quot;background-color: initial;&quot;&gt;6) Пользователь может изменить сортировку&lt;/strong&gt;&lt;/div&gt;&lt;p&gt;&lt;/p&gt;&lt;span style=&quot;background-color: initial;&quot;&gt;&lt;div style=&quot;text-align: justify;&quot;&gt;&lt;br&gt;&lt;/div&gt;&lt;/span&gt;&lt;/font&gt;" style="shape=partialRectangle;html=1;whiteSpace=wrap;connectable=0;strokeColor=inherit;overflow=hidden;fillColor=none;top=0;left=0;bottom=0;right=0;pointerEvents=1;" vertex="1" parent="zui_nFcvys3z8cbi4-ek-41">
          <mxGeometry x="155" width="265" height="425" as="geometry">
            <mxRectangle width="265" height="425" as="alternateBounds" />
          </mxGeometry>
        </mxCell>
        <mxCell id="zui_nFcvys3z8cbi4-ek-44" value="" style="shape=tableRow;horizontal=0;startSize=0;swimlaneHead=0;swimlaneBody=0;strokeColor=inherit;top=0;left=0;bottom=0;right=0;collapsible=0;dropTarget=0;fillColor=none;points=[[0,0.5],[1,0.5]];portConstraint=eastwest;" vertex="1" parent="zui_nFcvys3z8cbi4-ek-25">
          <mxGeometry y="750" width="420" height="460" as="geometry" />
        </mxCell>
        <mxCell id="zui_nFcvys3z8cbi4-ek-45" value="Альтернативный сценарий" style="shape=partialRectangle;html=1;whiteSpace=wrap;connectable=0;strokeColor=inherit;overflow=hidden;fillColor=none;top=0;left=0;bottom=0;right=0;pointerEvents=1;" vertex="1" parent="zui_nFcvys3z8cbi4-ek-44">
          <mxGeometry width="155" height="460" as="geometry">
            <mxRectangle width="155" height="460" as="alternateBounds" />
          </mxGeometry>
        </mxCell>
        <mxCell id="zui_nFcvys3z8cbi4-ek-46" value="&lt;p style=&quot;font-size: 7px;&quot;&gt;&lt;strong style=&quot;background-color: initial;&quot;&gt;Альтернативный сценарий: Сортировка Reels по дате (ошибка загрузки данных)&lt;/strong&gt;&lt;br&gt;&lt;/p&gt;&lt;strong style=&quot;font-size: 7px; background-color: initial;&quot;&gt;3а)Пользователь выбирает сортировку &quot;по дате&quot;&lt;/strong&gt;&lt;br&gt;&lt;strong style=&quot;font-size: 7px; background-color: initial;&quot;&gt;3б) Система сталкивается с ошибкой при получении данных (например, потеря интернет-соединения или ошибка на сервере)&lt;/strong&gt;&lt;br&gt;&lt;p style=&quot;font-size: 7px; background-color: initial; display: inline !important;&quot;&gt;&lt;strong&gt;3в) Пользователь может попробовать обновить страницу.&lt;/strong&gt;&lt;/p&gt;&lt;br&gt;&lt;strong style=&quot;font-size: 7px; background-color: initial;&quot;&gt;4) Пользователь возвращается к предыдущей сортировке&lt;/strong&gt;" style="shape=partialRectangle;html=1;whiteSpace=wrap;connectable=0;strokeColor=inherit;overflow=hidden;fillColor=none;top=0;left=0;bottom=0;right=0;pointerEvents=1;align=left;" vertex="1" parent="zui_nFcvys3z8cbi4-ek-44">
          <mxGeometry x="155" width="265" height="460" as="geometry">
            <mxRectangle width="265" height="460" as="alternateBounds" />
          </mxGeometry>
        </mxCell>
        <mxCell id="zui_nFcvys3z8cbi4-ek-47" value="" style="shape=tableRow;horizontal=0;startSize=0;swimlaneHead=0;swimlaneBody=0;strokeColor=inherit;top=0;left=0;bottom=0;right=0;collapsible=0;dropTarget=0;fillColor=none;points=[[0,0.5],[1,0.5]];portConstraint=eastwest;" vertex="1" parent="zui_nFcvys3z8cbi4-ek-25">
          <mxGeometry y="1210" width="420" height="150" as="geometry" />
        </mxCell>
        <mxCell id="zui_nFcvys3z8cbi4-ek-48" value="Результат/Критерии успеха" style="shape=partialRectangle;html=1;whiteSpace=wrap;connectable=0;strokeColor=inherit;overflow=hidden;fillColor=none;top=0;left=0;bottom=0;right=0;pointerEvents=1;" vertex="1" parent="zui_nFcvys3z8cbi4-ek-47">
          <mxGeometry width="155" height="150" as="geometry">
            <mxRectangle width="155" height="150" as="alternateBounds" />
          </mxGeometry>
        </mxCell>
        <mxCell id="zui_nFcvys3z8cbi4-ek-49" value="&lt;div style=&quot;font-size: 8px;&quot;&gt;&lt;font style=&quot;font-size: 8px;&quot;&gt;&lt;br&gt;&lt;/font&gt;&lt;/div&gt;&lt;font style=&quot;font-size: 8px;&quot;&gt;Reels успешно отсортированы по выбранной дате&lt;/font&gt;" style="shape=partialRectangle;html=1;whiteSpace=wrap;connectable=0;strokeColor=inherit;overflow=hidden;fillColor=none;top=0;left=0;bottom=0;right=0;pointerEvents=1;" vertex="1" parent="zui_nFcvys3z8cbi4-ek-47">
          <mxGeometry x="155" width="265" height="150" as="geometry">
            <mxRectangle width="265" height="150" as="alternateBounds" />
          </mxGeometry>
        </mxCell>
      </root>
    </mxGraphModel>
  </diagram>
</mxfile>
